name rise30.2954peak35.7071fall66.7804.mot
datacolumns 19
datarows 18
range 23.06658000000000 23.09491800000000
endheader
time	ground_force1_vx	ground_force1_vy	ground_force1_vz	ground_force1_px	ground_force1_py	ground_force1_pz	ground_force2_vx	ground_force2_vy	ground_force2_vz	ground_force2_px	ground_force2_py	ground_force2_pz	ground_torque1_x	ground_torque1_y	ground_torque1_z	ground_torque2_x	ground_torque2_y	ground_torque2_z	
23.06658000000000	53.58006100000000	747.10698600000001	53.69223600000000	0.24260800000000	0.00000000000000	0.10750300000000	-0.16645800000000	11.65311100000000	1.28135500000000	0.00000000000000	0.00000000000000	0.00000000000000	0.00000000000000	13.61146500000000	0.00000000000000	0.00000000000000	-0.14500800000000	0.00000000000000	
23.06825000000000	52.87589800000000	750.41621699999996	53.80764300000000	0.24176800000000	0.00000000000000	0.10750500000000	0.11680000000000	7.20349800000000	0.86837900000000	0.00000000000000	0.00000000000000	0.00000000000000	0.00000000000000	13.68467600000000	0.00000000000000	0.00000000000000	-0.07653900000000	0.00000000000000	
23.06991200000000	52.16280200000000	753.59957499999996	53.92897200000000	0.24093400000000	0.00000000000000	0.10751000000000	0.29982200000000	3.56061200000000	0.51206900000000	0.00000000000000	0.00000000000000	0.00000000000000	0.00000000000000	13.76291700000000	0.00000000000000	0.00000000000000	-0.02330800000000	0.00000000000000	
23.07157800000000	51.44176700000000	756.65516100000002	54.05666800000000	0.24010700000000	0.00000000000000	0.10751700000000	0.00000000000000	0.00000000000000	0.00000000000000	0.00000000000000	0.00000000000000	0.00000000000000	0.00000000000000	13.84621900000000	0.00000000000000	0.00000000000000	0.00000000000000	0.00000000000000	
23.07325400000000	50.71374700000000	759.58116099999995	54.19104900000000	0.23928400000000	0.00000000000000	0.10752700000000	0.00000000000000	0.00000000000000	0.00000000000000	0.00000000000000	0.00000000000000	0.00000000000000	0.00000000000000	13.93455600000000	0.00000000000000	0.00000000000000	0.00000000000000	0.00000000000000	
23.07491600000000	49.97965900000000	762.37586399999998	54.33231000000000	0.23846500000000	0.00000000000000	0.10753900000000	0.00000000000000	0.00000000000000	0.00000000000000	0.00000000000000	0.00000000000000	0.00000000000000	0.00000000000000	14.02784800000000	0.00000000000000	0.00000000000000	0.00000000000000	0.00000000000000	
23.07658000000000	49.24038400000000	765.03767000000005	54.48052100000000	0.23764700000000	0.00000000000000	0.10755500000000	0.00000000000000	0.00000000000000	0.00000000000000	0.00000000000000	0.00000000000000	0.00000000000000	0.00000000000000	14.12596100000000	0.00000000000000	0.00000000000000	0.00000000000000	0.00000000000000	
23.07825300000000	48.49676400000000	767.56510400000002	54.63563200000000	0.23683100000000	0.00000000000000	0.10757300000000	0.00000000000000	0.00000000000000	0.00000000000000	0.00000000000000	0.00000000000000	0.00000000000000	0.00000000000000	14.22871000000000	0.00000000000000	0.00000000000000	0.00000000000000	0.00000000000000	
23.07991400000000	47.74960900000000	769.95682399999998	54.79747600000000	0.23601400000000	0.00000000000000	0.10759400000000	0.00000000000000	0.00000000000000	0.00000000000000	0.00000000000000	0.00000000000000	0.00000000000000	0.00000000000000	14.33586200000000	0.00000000000000	0.00000000000000	0.00000000000000	0.00000000000000	
23.08158300000000	46.99969300000000	772.21163400000000	54.96577100000000	0.23519600000000	0.00000000000000	0.10761700000000	0.00000000000000	0.00000000000000	0.00000000000000	0.00000000000000	0.00000000000000	0.00000000000000	0.00000000000000	14.44713300000000	0.00000000000000	0.00000000000000	0.00000000000000	0.00000000000000	
23.08324600000000	46.24775900000000	774.32849199999998	55.14012900000000	0.23437500000000	0.00000000000000	0.10764400000000	0.00000000000000	0.00000000000000	0.00000000000000	0.00000000000000	0.00000000000000	0.00000000000000	0.00000000000000	14.56219900000000	0.00000000000000	0.00000000000000	0.00000000000000	0.00000000000000	
23.08491900000000	45.49451900000000	776.30651999999998	55.32005800000000	0.23355000000000	0.00000000000000	0.10767300000000	0.00000000000000	0.00000000000000	0.00000000000000	0.00000000000000	0.00000000000000	0.00000000000000	0.00000000000000	14.68069200000000	0.00000000000000	0.00000000000000	0.00000000000000	0.00000000000000	
23.08658400000000	44.74065700000000	778.14501399999995	55.50496700000000	0.23272100000000	0.00000000000000	0.10770500000000	0.00000000000000	0.00000000000000	0.00000000000000	0.00000000000000	0.00000000000000	0.00000000000000	0.00000000000000	14.80220700000000	0.00000000000000	0.00000000000000	0.00000000000000	0.00000000000000	
23.08824600000000	43.98682800000000	779.84345099999996	55.69417500000000	0.23188500000000	0.00000000000000	0.10773900000000	0.00000000000000	0.00000000000000	0.00000000000000	0.00000000000000	0.00000000000000	0.00000000000000	0.00000000000000	14.92630300000000	0.00000000000000	0.00000000000000	0.00000000000000	0.00000000000000	
23.08991400000000	43.23366300000000	781.40149499999995	55.88692000000000	0.23104300000000	0.00000000000000	0.10777600000000	0.00000000000000	0.00000000000000	0.00000000000000	0.00000000000000	0.00000000000000	0.00000000000000	0.00000000000000	15.05250800000000	0.00000000000000	0.00000000000000	0.00000000000000	0.00000000000000	
23.09158600000000	42.48176800000000	782.81900599999994	56.08235800000000	0.23019200000000	0.00000000000000	0.10781600000000	0.00000000000000	0.00000000000000	0.00000000000000	0.00000000000000	0.00000000000000	0.00000000000000	0.00000000000000	15.18032200000000	0.00000000000000	0.00000000000000	0.00000000000000	0.00000000000000	
23.09325300000000	41.73172600000000	784.09604300000001	56.27958200000000	0.22933400000000	0.00000000000000	0.10785700000000	0.00000000000000	0.00000000000000	0.00000000000000	0.00000000000000	0.00000000000000	0.00000000000000	0.00000000000000	15.30922100000000	0.00000000000000	0.00000000000000	0.00000000000000	0.00000000000000	
23.09491800000000	40.98410300000000	785.23287100000005	56.47762100000000	0.22846500000000	0.00000000000000	0.10790200000000	0.00000000000000	0.00000000000000	0.00000000000000	0.00000000000000	0.00000000000000	0.00000000000000	0.00000000000000	15.43866100000000	0.00000000000000	0.00000000000000	0.00000000000000	0.00000000000000	
